<svg viewBox="0 0 1400 1000" xmlns="http://www.w3.org/2000/svg">
  <!-- 背景和样式定义 -->
  <defs>
    <linearGradient id="bgGradient" x1="0%" y1="0%" x2="100%" y2="100%">
      <stop offset="0%" style="stop-color:#f8fafc;stop-opacity:1"/>
      <stop offset="100%" style="stop-color:#e2e8f0;stop-opacity:1"/>
    </linearGradient>
    <filter id="shadow" x="-20%" y="-20%" width="140%" height="140%">
      <feDropShadow dx="2" dy="2" stdDeviation="2" flood-opacity="0.3"/>
    </filter>
    <pattern id="oledPattern" patternUnits="userSpaceOnUse" width="2" height="2">
      <rect width="2" height="2" fill="#000000"/>
      <rect width="1" height="1" fill="#0ea5e9"/>
    </pattern>
  </defs>
  
  <rect width="1400" height="1000" fill="url(#bgGradient)"/>
  
  <!-- 标题 -->
  <text x="700" y="40" text-anchor="middle" font-family="Arial, sans-serif" font-size="28" font-weight="bold" fill="#1e40af">
    蹦跳小火箭 V2.0 - OLED界面设计 (128×64)
  </text>
  
  <!-- 1. 开机动画界面 -->
  <g transform="translate(100, 100)">
    <text x="64" y="-10" text-anchor="middle" font-family="Arial, sans-serif" font-size="14" font-weight="bold" fill="#374151">1. 开机动画界面</text>
    <rect x="0" y="0" width="128" height="64" fill="#000000" stroke="#64748b" stroke-width="2" filter="url(#shadow)"/>
    
    <!-- 火箭图标 -->
    <g transform="translate(64, 32)">
      <polygon points="0,-20 5,-5 -5,-5" fill="#ffffff"/>
      <rect x="-3" y="-5" width="6" height="15" fill="#ffffff"/>
      <polygon points="-6,10 -3,15 3,15 6,10 3,10 -3,10" fill="#ffffff"/>
      <circle cx="-1" cy="2" r="1" fill="#000000"/>
      <circle cx="1" cy="2" r="1" fill="#000000"/>
    </g>
    
    <!-- 闪烁效果 -->
    <g transform="translate(64, 50)">
      <text x="0" y="0" text-anchor="middle" font-family="Arial, sans-serif" font-size="10" fill="#ffffff">ROCKET</text>
    </g>
    
    <!-- 动画指示点 -->
    <circle cx="40" cy="55" r="2" fill="#ffffff">
      <animate attributeName="opacity" values="0;1;0" dur="0.5s" repeatCount="indefinite"/>
    </circle>
    <circle cx="50" cy="55" r="2" fill="#ffffff">
      <animate attributeName="opacity" values="0;1;0" dur="0.5s" begin="0.2s" repeatCount="indefinite"/>
    </circle>
    <circle cx="60" cy="55" r="2" fill="#ffffff">
      <animate attributeName="opacity" values="0;1;0" dur="0.5s" begin="0.4s" repeatCount="indefinite"/>
    </circle>
  </g>
  
  <!-- 2. 待机界面 -->
  <g transform="translate(300, 100)">
    <text x="64" y="-10" text-anchor="middle" font-family="Arial, sans-serif" font-size="14" font-weight="bold" fill="#374151">2. 待机界面</text>
    <rect x="0" y="0" width="128" height="64" fill="#000000" stroke="#64748b" stroke-width="2" filter="url(#shadow)"/>
    
    <!-- 顶部状态栏 -->
    <line x1="0" y1="12" x2="128" y2="12" stroke="#ffffff" stroke-width="1"/>
    <text x="5" y="9" font-family="Arial, sans-serif" font-size="8" fill="#ffffff">READY</text>
    
    <!-- 中央火箭图标 -->
    <g transform="translate(64, 30)">
      <polygon points="0,-12 3,-3 -3,-3" fill="#ffffff"/>
      <rect x="-2" y="-3" width="4" height="10" fill="#ffffff"/>
      <polygon points="-4,7 -2,10 2,10 4,7 2,7 -2,7" fill="#ffffff"/>
      <circle cx="-1" cy="1" r="1" fill="#000000"/>
      <circle cx="1" cy="1" r="1" fill="#000000"/>
    </g>
    
    <!-- 提示文字 -->
    <text x="64" y="50" text-anchor="middle" font-family="Arial, sans-serif" font-size="8" fill="#ffffff">Jump to Start</text>
    
    <!-- 呼吸灯效果 -->
    <circle cx="64" cy="30" r="18" fill="none" stroke="#ffffff" stroke-width="1" opacity="0.3">
      <animate attributeName="r" values="15;20;15" dur="2s" repeatCount="indefinite"/>
      <animate attributeName="opacity" values="0.3;0.1;0.3" dur="2s" repeatCount="indefinite"/>
    </circle>
  </g>
  
  <!-- 3. 游戏中界面 -->
  <g transform="translate(500, 100)">
    <text x="64" y="-10" text-anchor="middle" font-family="Arial, sans-serif" font-size="14" font-weight="bold" fill="#374151">3. 游戏中界面</text>
    <rect x="0" y="0" width="128" height="64" fill="#000000" stroke="#64748b" stroke-width="2" filter="url(#shadow)"/>
    
    <!-- 顶部信息栏 -->
    <text x="5" y="9" font-family="Arial, sans-serif" font-size="8" fill="#ffffff">Time: 01:25</text>
    <text x="80" y="9" font-family="Arial, sans-serif" font-size="8" fill="#ffffff">Count: 42</text>
    
    <!-- 分割线 -->
    <line x1="0" y1="12" x2="128" y2="12" stroke="#ffffff" stroke-width="1"/>
    
    <!-- 火箭图标 -->
    <g transform="translate(20, 32)">
      <polygon points="0,-8 2,-2 -2,-2" fill="#ffffff"/>
      <rect x="-1" y="-2" width="2" height="6" fill="#ffffff"/>
      <polygon points="-3,4 -1,6 1,6 3,4 1,4 -1,4" fill="#ffffff"/>
    </g>
    
    <!-- 燃料进度条 -->
    <text x="35" y="25" font-family="Arial, sans-serif" font-size="7" fill="#ffffff">FUEL</text>
    <rect x="35" y="28" width="85" height="6" fill="none" stroke="#ffffff" stroke-width="1"/>
    <rect x="36" y="29" width="55" height="4" fill="#ffffff"/>
    <text x="35" y="42" font-family="Arial, sans-serif" font-size="6" fill="#ffffff">65%</text>
    
    <!-- 底部提示 -->
    <text x="5" y="55" font-family="Arial, sans-serif" font-size="6" fill="#ffffff">Press: Pause</text>
    <text x="80" y="55" font-family="Arial, sans-serif" font-size="6" fill="#ffffff">Hold: Reset</text>
  </g>
  
  <!-- 4. 暂停界面 -->
  <g transform="translate(700, 100)">
    <text x="64" y="-10" text-anchor="middle" font-family="Arial, sans-serif" font-size="14" font-weight="bold" fill="#374151">4. 暂停界面</text>
    <rect x="0" y="0" width="128" height="64" fill="#000000" stroke="#64748b" stroke-width="2" filter="url(#shadow)"/>
    
    <!-- 暂停图标 -->
    <g transform="translate(64, 20)">
      <rect x="-6" y="-6" width="4" height="12" fill="#ffffff"/>
      <rect x="2" y="-6" width="4" height="12" fill="#ffffff"/>
    </g>
    
    <!-- 暂停文字 -->
    <text x="64" y="35" text-anchor="middle" font-family="Arial, sans-serif" font-size="10" fill="#ffffff">PAUSED</text>
    
    <!-- 统计信息 -->
    <text x="64" y="45" text-anchor="middle" font-family="Arial, sans-serif" font-size="7" fill="#ffffff">Time: 01:25  Jumps: 42</text>
    
    <!-- 操作提示 -->
    <text x="64" y="55" text-anchor="middle" font-family="Arial, sans-serif" font-size="6" fill="#ffffff">Press: Continue | Hold: Reset</text>
    
    <!-- 闪烁边框 -->
    <rect x="1" y="1" width="126" height="62" fill="none" stroke="#ffffff" stroke-width="1">
      <animate attributeName="opacity" values="0.3;1;0.3" dur="1s" repeatCount="indefinite"/>
    </rect>
  </g>
  
  <!-- 5. 重置确认界面 -->
  <g transform="translate(900, 100)">
    <text x="64" y="-10" text-anchor="middle" font-family="Arial, sans-serif" font-size="14" font-weight="bold" fill="#374151">5. 重置确认界面</text>
    <rect x="0" y="0" width="128" height="64" fill="#000000" stroke="#64748b" stroke-width="2" filter="url(#shadow)"/>
    
    <!-- 警告图标 -->
    <g transform="translate(64, 20)">
      <polygon points="0,-8 7,6 -7,6" fill="none" stroke="#ffffff" stroke-width="1"/>
      <text x="0" y="2" text-anchor="middle" font-family="Arial, sans-serif" font-size="8" fill="#ffffff">!</text>
    </g>
    
    <!-- 确认文字 -->
    <text x="64" y="35" text-anchor="middle" font-family="Arial, sans-serif" font-size="8" fill="#ffffff">Reset Game?</text>
    
    <!-- 操作提示 -->
    <text x="64" y="45" text-anchor="middle" font-family="Arial, sans-serif" font-size="6" fill="#ffffff">Hold Again to Confirm</text>
    <text x="64" y="55" text-anchor="middle" font-family="Arial, sans-serif" font-size="6" fill="#ffffff">Release to Cancel</text>
    
    <!-- 闪烁警告 -->
    <rect x="2" y="2" width="124" height="60" fill="none" stroke="#ffffff" stroke-width="1">
      <animate attributeName="opacity" values="1;0.2;1" dur="0.5s" repeatCount="indefinite"/>
    </rect>
  </g>
  
  <!-- 6. 火箭发射动画界面 -->
  <g transform="translate(1100, 100)">
    <text x="64" y="-10" text-anchor="middle" font-family="Arial, sans-serif" font-size="14" font-weight="bold" fill="#374151">6. 火箭发射动画</text>
    <rect x="0" y="0" width="128" height="64" fill="#000000" stroke="#64748b" stroke-width="2" filter="url(#shadow)"/>
    
    <!-- 火箭 -->
    <g transform="translate(64, 45)">
      <animateTransform attributeName="transform" type="translate" values="64,45;64,20;64,5" dur="2s" repeatCount="indefinite"/>
      <polygon points="0,-10 4,-2 -4,-2" fill="#ffffff"/>
      <rect x="-2" y="-2" width="4" height="8" fill="#ffffff"/>
      <polygon points="-5,6 -2,10 2,10 5,6 2,6 -2,6" fill="#ffffff"/>
    </g>
    
    <!-- 火焰效果 -->
    <g transform="translate(64, 55)">
      <animateTransform attributeName="transform" type="translate" values="64,55;64,30;64,15" dur="2s" repeatCount="indefinite"/>
      <polygon points="0,0 -2,8 2,8" fill="#ffffff">
        <animate attributeName="opacity" values="0.8;0.3;0.8" dur="0.2s" repeatCount="indefinite"/>
      </polygon>
    </g>
    
    <!-- 星星效果 -->
    <g>
      <text x="30" y="20" font-family="Arial, sans-serif" font-size="8" fill="#ffffff">*</text>
      <text x="90" y="25" font-family="Arial, sans-serif" font-size="6" fill="#ffffff">*</text>
      <text x="20" y="40" font-family="Arial, sans-serif" font-size="7" fill="#ffffff">*</text>
      <text x="100" y="45" font-family="Arial, sans-serif" font-size="8" fill="#ffffff">*</text>
      <animateTransform attributeName="transform" type="rotate" values="0 64 32;360 64 32" dur="5s" repeatCount="indefinite"/>
    </g>
  </g>
  
  <!-- 7. 结算界面 -->
  <g transform="translate(100, 350)">
    <text x="64" y="-10" text-anchor="middle" font-family="Arial, sans-serif" font-size="14" font-weight="bold" fill="#374151">7. 结算界面</text>
    <rect x="0" y="0" width="128" height="64" fill="#000000" stroke="#64748b" stroke-width="2" filter="url(#shadow)"/>
    
    <!-- 奖杯图标 -->
    <g transform="translate(64, 18)">
      <rect x="-4" y="-8" width="8" height="6" fill="#ffffff"/>
      <rect x="-6" y="-2" width="12" height="4" fill="#ffffff"/>
      <rect x="-1" y="2" width="2" height="4" fill="#ffffff"/>
      <rect x="-3" y="6" width="6" height="2" fill="#ffffff"/>
    </g>
    
    <!-- 成绩显示 -->
    <text x="64" y="30" text-anchor="middle" font-family="Arial, sans-serif" font-size="8" fill="#ffffff">GREAT JOB!</text>
    <text x="64" y="40" text-anchor="middle" font-family="Arial, sans-serif" font-size="7" fill="#ffffff">Height: 1250m</text>
    <text x="64" y="48" text-anchor="middle" font-family="Arial, sans-serif" font-size="6" fill="#ffffff">Time: 01:25  Jumps: 42</text>
    
    <!-- 操作提示 -->
    <text x="64" y="58" text-anchor="middle" font-family="Arial, sans-serif" font-size="6" fill="#ffffff">Press to Continue</text>
  </g>
  
  <!-- 8. 跳跃反馈动画 -->
  <g transform="translate(300, 350)">
    <text x="64" y="-10" text-anchor="middle" font-family="Arial, sans-serif" font-size="14" font-weight="bold" fill="#374151">8. 跳跃反馈动画</text>
    <rect x="0" y="0" width="128" height="64" fill="#000000" stroke="#64748b" stroke-width="2" filter="url(#shadow)"/>
    
    <!-- 跳跃波纹效果 -->
    <g transform="translate(64, 32)">
      <circle cx="0" cy="0" r="8" fill="none" stroke="#ffffff" stroke-width="1">
        <animate attributeName="r" values="5;15;5" dur="0.5s" repeatCount="indefinite"/>
        <animate attributeName="opacity" values="1;0.2;1" dur="0.5s" repeatCount="indefinite"/>
      </circle>
      <circle cx="0" cy="0" r="12" fill="none" stroke="#ffffff" stroke-width="1">
        <animate attributeName="r" values="8;20;8" dur="0.5s" begin="0.1s" repeatCount="indefinite"/>
        <animate attributeName="opacity" values="0.8;0.1;0.8" dur="0.5s" begin="0.1s" repeatCount="indefinite"/>
      </circle>
    </g>
    
    <!-- 跳跃计数提示 -->
    <text x="64" y="20" text-anchor="middle" font-family="Arial, sans-serif" font-size="10" fill="#ffffff">+1</text>
    <text x="64" y="50" text-anchor="middle" font-family="Arial, sans-serif" font-size="8" fill="#ffffff">JUMP!</text>
  </g>
  
  <!-- 9. 进度条样式 -->
  <g transform="translate(500, 350)">
    <text x="64" y="-10" text-anchor="middle" font-family="Arial, sans-serif" font-size="14" font-weight="bold" fill="#374151">9. 进度条样式</text>
    <rect x="0" y="0" width="128" height="64" fill="#000000" stroke="#64748b" stroke-width="2" filter="url(#shadow)"/>
    
    <!-- 标题 -->
    <text x="5" y="12" font-family="Arial, sans-serif" font-size="8" fill="#ffffff">FUEL LOADING...</text>
    
    <!-- 进度条外框 -->
    <rect x="5" y="18" width="118" height="8" fill="none" stroke="#ffffff" stroke-width="1"/>
    
    <!-- 进度条填充 -->
    <rect x="6" y="19" width="78" height="6" fill="#ffffff">
      <animate attributeName="width" values="0;116;0" dur="3s" repeatCount="indefinite"/>
    </rect>
    
    <!-- 百分比显示 -->
    <text x="64" y="38" text-anchor="middle" font-family="Arial, sans-serif" font-size="10" fill="#ffffff">67%</text>
    
    <!-- 燃料罐图标 -->
    <g transform="translate(64, 50)">
      <rect x="-4" y="-4" width="8" height="8" fill="none" stroke="#ffffff" stroke-width="1"/>
      <rect x="-3" y="-3" width="6" height="4" fill="#ffffff"/>
      <rect x="-2" y="-6" width="4" height="2" fill="#ffffff"/>
    </g>
  </g>
  
  <!-- 10. 倒计时界面 -->
  <g transform="translate(700, 350)">
    <text x="64" y="-10" text-anchor="middle" font-family="Arial, sans-serif" font-size="14" font-weight="bold" fill="#374151">10. 倒计时界面</text>
    <rect x="0" y="0" width="128" height="64" fill="#000000" stroke="#64748b" stroke-width="2" filter="url(#shadow)"/>
    
    <!-- 倒计时数字 -->
    <text x="64" y="40" text-anchor="middle" font-family="Arial, sans-serif" font-size="24" fill="#ffffff">3</text>
    
    <!-- 倒计时圆环 -->
    <circle cx="64" cy="32" r="25" fill="none" stroke="#ffffff" stroke-width="2">
      <animate attributeName="stroke-dasharray" values="157;0" dur="1s" repeatCount="indefinite"/>
    </circle>
    
    <!-- 提示文字 -->
    <text x="64" y="55" text-anchor="middle" font-family="Arial, sans-serif" font-size="8" fill="#ffffff">GET READY!</text>
  </g>
  
  <!-- 设计说明 -->
  <g transform="translate(100, 600)">
    <rect x="0" y="0" width="1200" height="350" rx="10" fill="#ffffff" stroke="#e2e8f0" stroke-width="2" filter="url(#shadow)"/>
    <text x="600" y="30" text-anchor="middle" font-family="Arial, sans-serif" font-size="20" font-weight="bold" fill="#1e40af">UI设计说明</text>
    
    <!-- 设计原则 -->
    <g transform="translate(50, 60)">
      <text x="0" y="0" font-family="Arial, sans-serif" font-size="16" font-weight="bold" fill="#374151">设计原则：</text>
      <text x="0" y="25" font-family="Arial, sans-serif" font-size="12" fill="#4b5563">• 单色显示优化：使用高对比度的黑白设计，确保在SSD1306上清晰可见</text>
      <text x="0" y="45" font-family="Arial, sans-serif" font-size="12" fill="#4b5563">• 像素级精确：所有UI元素都按128×64分辨率精确设计，避免显示模糊</text>
      <text x="0" y="65" font-family="Arial, sans-serif" font-size="12" fill="#4b5563">• 信息层次化：重要信息使用大字体，次要信息使用小字体，建立清晰的视觉层次</text>
      <text x="0" y="85" font-family="Arial, sans-serif" font-size="12" fill="#4b5563">• 动画反馈：加入适当的动画效果，提升用户体验和趣味性</text>
    </g>
    
    <!-- 布局策略 -->
    <g transform="translate(50, 170)">
      <text x="0" y="0" font-family="Arial, sans-serif" font-size="16" font-weight="bold" fill="#374151">布局策略：</text>
      <text x="0" y="25" font-family="Arial, sans-serif" font-size="12" fill="#4b5563">• 顶部状态栏：显示时间、计数等关键数据，高度12像素</text>
      <text x="0" y="45" font-family="Arial, sans-serif" font-size="12" fill="#4b5563">• 中央内容区：主要显示区域，用于图标、进度条、动画等</text>
      <text x="0" y="65" font-family="Arial, sans-serif" font-size="12" fill="#4b5563">• 底部提示区：操作说明和提示信息，高度8-10像素</text>
    </g>
    
    <!-- 图标设计 -->
    <g transform="translate(650, 60)">
      <text x="0" y="0" font-family="Arial, sans-serif" font-size="16" font-weight="bold" fill="#374151">图标设计：</text>
      <text x="0" y="25" font-family="Arial, sans-serif" font-size="12" fill="#4b5563">• 火箭图标：项目主题标识，多种尺寸适应不同界面</text>
      <text x="0" y="45" font-family="Arial, sans-serif" font-size="12" fill="#4b5563">• 功能图标：暂停、重置、警告等，简洁明了</text>
      <text x="0" y="65" font-family="Arial, sans-serif" font-size="12" fill="#4b5563">• 装饰元素：星星、波纹、火焰等，增加视觉趣味</text>
    </g>
    
    <!-- 动画效果 -->
    <g transform="translate(650, 170)">
      <text x="0" y="0" font-family="Arial, sans-serif" font-size="16" font-weight="bold" fill="#374151">动画效果：</text>
      <text x="0" y="25" font-family="Arial, sans-serif" font-size="12" fill="#4b5563">• 呼吸灯效果：待机界面的节奏感</text>
      <text x="0" y="45" font-family="Arial, sans-serif" font-size="12" fill="#4b5563">• 进度条动画：燃料加载的视觉反馈</text>
      <text x="0" y="65" font-family="Arial, sans-serif" font-size="12" fill="#4b5563">• 跳跃波纹：实时反馈用户动作</text>
      <text x="0" y="85" font-family="Arial, sans-serif" font-size="12" fill="#4b5563">• 火箭发射：最终结算的高潮动画</text>
    </g>
    
    <!-- 技术要点 -->
    <g transform="translate(50, 270)">
      <text x="0" y="0" font-family="Arial, sans-serif" font-size="16" font-weight="bold" fill="#374151">技术实现要点：</text>
      <text x="0" y="25" font-family="Arial, sans-serif" font-size="12" fill="#4b5563">• 字体选择：使用8×8、6×6像素字体，确保清晰显示</text>
      <text x="0" y="45" font-family="Arial, sans-serif" font-size="12" fill="#4b5563">• 刷新策略：局部刷新减少闪烁，全屏刷新用于场景切换</text>
      <text x="0" y="65" font-family="Arial, sans-serif" font-size="12" fill="#4b5563">• 内存优化：使用位图缓存和简化图形减少内存占用</text>
    </g>
  </g>
  
  <!-- 装饰火箭 -->
  <g transform="translate(1300, 800)">
    <polygon points="0,-15 8,-5 -8,-5" fill="#ef4444"/>
    <rect x="-5" y="-5" width="10" height="20" fill="#3b82f6"/>
    <polygon points="-8,15 -5,22 5,22 8,15 5,15 -5,15" fill="#f59e0b"/>
    <circle cx="-2" cy="5" r="2" fill="#ffffff"/>
    <circle cx="2" cy="5" r="2" fill="#ffffff"/>
    <animateTransform attributeName="transform" type="translate" values="1300,800;1300,750;1300,800" dur="3s" repeatCount="indefinite"/>
  </g>
</svg>