<svg viewBox="0 0 1000 700" xmlns="http://www.w3.org/2000/svg">
  <!-- 背景 -->
  <rect width="1000" height="700" fill="#f8f9fa"/>
  
  <!-- 标题 -->
  <text x="500" y="30" text-anchor="middle" font-size="20" font-weight="bold" fill="#2c3e50">蹦跳小火箭 V3.0 系统架构图</text>
  
  <!-- 硬件层 -->
  <rect x="50" y="60" width="900" height="180" fill="#e8f4fd" stroke="#3498db" stroke-width="2" rx="10"/>
  <text x="70" y="85" font-size="16" font-weight="bold" fill="#2c3e50">硬件层 (Hardware Layer)</text>
  
  <!-- 硬件组件 -->
  <rect x="80" y="100" width="120" height="80" fill="#ffffff" stroke="#3498db" stroke-width="1" rx="5"/>
  <text x="140" y="125" text-anchor="middle" font-size="12" font-weight="bold" fill="#2c3e50">ESP32-C3Mini</text>
  <text x="140" y="140" text-anchor="middle" font-size="10" fill="#666">主控芯片</text>
  <text x="140" y="155" text-anchor="middle" font-size="10" fill="#666">Wi-Fi/蓝牙</text>
  <text x="140" y="170" text-anchor="middle" font-size="10" fill="#666">低功耗模式</text>
  
  <rect x="220" y="100" width="120" height="80" fill="#ffffff" stroke="#3498db" stroke-width="1" rx="5"/>
  <text x="280" y="125" text-anchor="middle" font-size="12" font-weight="bold" fill="#2c3e50">MPU6050</text>
  <text x="280" y="140" text-anchor="middle" font-size="10" fill="#666">六轴传感器</text>
  <text x="280" y="155" text-anchor="middle" font-size="10" fill="#666">运动检测</text>
  
  <rect x="360" y="100" width="120" height="80" fill="#ffffff" stroke="#3498db" stroke-width="1" rx="5"/>
  <text x="420" y="125" text-anchor="middle" font-size="12" font-weight="bold" fill="#2c3e50">OLED显示屏</text>
  <text x="420" y="140" text-anchor="middle" font-size="10" fill="#666">0.96寸 I2C</text>
  <text x="420" y="155" text-anchor="middle" font-size="10" fill="#666">SH1106/SSD1306</text>
  
  <rect x="500" y="100" width="120" height="80" fill="#ffffff" stroke="#3498db" stroke-width="1" rx="5"/>
  <text x="560" y="125" text-anchor="middle" font-size="12" font-weight="bold" fill="#2c3e50">无源蜂鸣器</text>
  <text x="560" y="140" text-anchor="middle" font-size="10" fill="#666">声音反馈</text>
  <text x="560" y="155" text-anchor="middle" font-size="10" fill="#666">PWM控制</text>
  
  <rect x="640" y="100" width="120" height="80" fill="#ffffff" stroke="#3498db" stroke-width="1" rx="5"/>
  <text x="700" y="125" text-anchor="middle" font-size="12" font-weight="bold" fill="#2c3e50">轻触按钮</text>
  <text x="700" y="140" text-anchor="middle" font-size="10" fill="#666">用户交互</text>
  <text x="700" y="155" text-anchor="middle" font-size="10" fill="#666">单击/双击/长按</text>
  
  <rect x="780" y="100" width="120" height="80" fill="#ffffff" stroke="#3498db" stroke-width="1" rx="5"/>
  <text x="840" y="125" text-anchor="middle" font-size="12" font-weight="bold" fill="#2c3e50">锂电池</text>
  <text x="840" y="140" text-anchor="middle" font-size="10" fill="#666">3.7V电源</text>
  <text x="840" y="155" text-anchor="middle" font-size="10" fill="#666">充放电管理</text>
  
  <!-- 驱动层 -->
  <rect x="50" y="260" width="900" height="120" fill="#fff3e0" stroke="#f39c12" stroke-width="2" rx="10"/>
  <text x="70" y="285" font-size="16" font-weight="bold" fill="#2c3e50">驱动层 (Driver Layer)</text>
  
  <rect x="80" y="300" width="140" height="60" fill="#ffffff" stroke="#f39c12" stroke-width="1" rx="5"/>
  <text x="150" y="325" text-anchor="middle" font-size="12" font-weight="bold" fill="#2c3e50">I2C总线驱动</text>
  <text x="150" y="345" text-anchor="middle" font-size="10" fill="#666">MPU6050+OLED</text>
  
  <rect x="240" y="300" width="140" height="60" fill="#ffffff" stroke="#f39c12" stroke-width="1" rx="5"/>
  <text x="310" y="325" text-anchor="middle" font-size="12" font-weight="bold" fill="#2c3e50">GPIO驱动</text>
  <text x="310" y="345" text-anchor="middle" font-size="10" fill="#666">按钮/蜂鸣器</text>
  
  <rect x="400" y="300" width="140" height="60" fill="#ffffff" stroke="#f39c12" stroke-width="1" rx="5"/>
  <text x="470" y="325" text-anchor="middle" font-size="12" font-weight="bold" fill="#2c3e50">文件系统</text>
  <text x="470" y="345" text-anchor="middle" font-size="10" fill="#666">SPIFFS/LittleFS</text>
  
  <rect x="560" y="300" width="140" height="60" fill="#ffffff" stroke="#f39c12" stroke-width="1" rx="5"/>
  <text x="630" y="325" text-anchor="middle" font-size="12" font-weight="bold" fill="#2c3e50">网络驱动</text>
  <text x="630" y="345" text-anchor="middle" font-size="10" fill="#666">Wi-Fi/蓝牙</text>
  
  <rect x="720" y="300" width="140" height="60" fill="#ffffff" stroke="#f39c12" stroke-width="1" rx="5"/>
  <text x="790" y="325" text-anchor="middle" font-size="12" font-weight="bold" fill="#2c3e50">电源管理</text>
  <text x="790" y="345" text-anchor="middle" font-size="10" fill="#666">深度睡眠</text>
  
  <!-- 应用层 -->
  <rect x="50" y="400" width="900" height="180" fill="#f0f9ff" stroke="#22c55e" stroke-width="2" rx="10"/>
  <text x="70" y="425" font-size="16" font-weight="bold" fill="#2c3e50">应用层 (Application Layer)</text>
  
  <rect x="80" y="440" width="130" height="120" fill="#ffffff" stroke="#22c55e" stroke-width="1" rx="5"/>
  <text x="145" y="465" text-anchor="middle" font-size="12" font-weight="bold" fill="#2c3e50">核心游戏引擎</text>
  <text x="145" y="485" text-anchor="middle" font-size="10" fill="#666">• 状态管理</text>
  <text x="145" y="500" text-anchor="middle" font-size="10" fill="#666">• 跳跃识别</text>
  <text x="145" y="515" text-anchor="middle" font-size="10" fill="#666">• 发射结算</text>
  <text x="145" y="530" text-anchor="middle" font-size="10" fill="#666">• 难度控制</text>
  <text x="145" y="545" text-anchor="middle" font-size="10" fill="#666">• 计时器</text>
  
  <rect x="230" y="440" width="130" height="120" fill="#ffffff" stroke="#22c55e" stroke-width="1" rx="5"/>
  <text x="295" y="465" text-anchor="middle" font-size="12" font-weight="bold" fill="#2c3e50">数据管理</text>
  <text x="295" y="485" text-anchor="middle" font-size="10" fill="#666">• 每日数据累积</text>
  <text x="295" y="500" text-anchor="middle" font-size="10" fill="#666">• 7天历史记录</text>
  <text x="295" y="515" text-anchor="middle" font-size="10" fill="#666">• 数据存储</text>
  <text x="295" y="530" text-anchor="middle" font-size="10" fill="#666">• 数据查看</text>
  
  <rect x="380" y="440" width="130" height="120" fill="#ffffff" stroke="#22c55e" stroke-width="1" rx="5"/>
  <text x="445" y="465" text-anchor="middle" font-size="12" font-weight="bold" fill="#2c3e50">交互界面</text>
  <text x="445" y="485" text-anchor="middle" font-size="10" fill="#666">• 菜单系统</text>
  <text x="445" y="500" text-anchor="middle" font-size="10" fill="#666">• 显示控制</text>
  <text x="445" y="515" text-anchor="middle" font-size="10" fill="#666">• 按钮响应</text>
  <text x="445" y="530" text-anchor="middle" font-size="10" fill="#666">• 动画效果</text>
  
  <rect x="530" y="440" width="130" height="120" fill="#ffffff" stroke="#22c55e" stroke-width="1" rx="5"/>
  <text x="595" y="465" text-anchor="middle" font-size="12" font-weight="bold" fill="#2c3e50">反馈系统</text>
  <text x="595" y="485" text-anchor="middle" font-size="10" fill="#666">• 视觉反馈</text>
  <text x="595" y="500" text-anchor="middle" font-size="10" fill="#666">• 声音反馈</text>
  <text x="595" y="515" text-anchor="middle" font-size="10" fill="#666">• 奖励机制</text>
  <text x="595" y="530" text-anchor="middle" font-size="10" fill="#666">• 进度提示</text>
  
  <rect x="680" y="440" width="130" height="120" fill="#ffffff" stroke="#22c55e" stroke-width="1" rx="5"/>
  <text x="745" y="465" text-anchor="middle" font-size="12" font-weight="bold" fill="#2c3e50">扩展功能</text>
  <text x="745" y="485" text-anchor="middle" font-size="10" fill="#666">• 网络时间同步</text>
  <text x="745" y="500" text-anchor="middle" font-size="10" fill="#666">• 蓝牙通信</text>
  <text x="745" y="515" text-anchor="middle" font-size="10" fill="#666">• OTA升级</text>
  <text x="745" y="530" text-anchor="middle" font-size="10" fill="#666">• 云端数据</text>
  
  <!-- 用户层 -->
  <rect x="50" y="600" width="900" height="80" fill="#fef7ff" stroke="#a855f7" stroke-width="2" rx="10"/>
  <text x="70" y="625" font-size="16" font-weight="bold" fill="#2c3e50">用户层 (User Layer)</text>
  
  <rect x="200" y="640" width="150" height="30" fill="#ffffff" stroke="#a855f7" stroke-width="1" rx="5"/>
  <text x="275" y="660" text-anchor="middle" font-size="12" font-weight="bold" fill="#2c3e50">小学生用户 (6-12岁)</text>
  
  <rect x="400" y="640" width="150" height="30" fill="#ffffff" stroke="#a855f7" stroke-width="1" rx="5"/>
  <text x="475" y="660" text-anchor="middle" font-size="12" font-weight="bold" fill="#2c3e50">户外跳跃运动游戏</text>
  
  <rect x="600" y="640" width="150" height="30" fill="#ffffff" stroke="#a855f7" stroke-width="1" rx="5"/>
  <text x="675" y="660" text-anchor="middle" font-size="12" font-weight="bold" fill="#2c3e50">健康习惯培养</text>
  
  <!-- 连接线 -->
  <!-- 硬件层到驱动层 -->
  <line x1="140" y1="180" x2="140" y2="190" stroke="#666" stroke-width="2"/>
  <line x1="140" y1="190" x2="150" y2="190" stroke="#666" stroke-width="2"/>
  <line x1="150" y1="190" x2="150" y2="300" stroke="#666" stroke-width="2"/>
  
  <line x1="280" y1="180" x2="280" y2="190" stroke="#666" stroke-width="2"/>
  <line x1="280" y1="190" x2="150" y2="190" stroke="#666" stroke-width="2"/>
  
  <line x1="420" y1="180" x2="420" y2="190" stroke="#666" stroke-width="2"/>
  <line x1="420" y1="190" x2="150" y2="190" stroke="#666" stroke-width="2"/>
  
  <line x1="560" y1="180" x2="560" y2="250" stroke="#666" stroke-width="2"/>
  <line x1="560" y1="250" x2="310" y2="250" stroke="#666" stroke-width="2"/>
  <line x1="310" y1="250" x2="310" y2="300" stroke="#666" stroke-width="2"/>
  
  <line x1="700" y1="180" x2="700" y2="250" stroke="#666" stroke-width="2"/>
  <line x1="700" y1="250" x2="310" y2="250" stroke="#666" stroke-width="2"/>
  
  <line x1="840" y1="180" x2="840" y2="250" stroke="#666" stroke-width="2"/>
  <line x1="840" y1="250" x2="790" y2="250" stroke="#666" stroke-width="2"/>
  <line x1="790" y1="250" x2="790" y2="300" stroke="#666" stroke-width="2"/>
  
  <!-- 驱动层到应用层 -->
  <line x1="150" y1="360" x2="150" y2="370" stroke="#666" stroke-width="2"/>
  <line x1="150" y1="370" x2="400" y2="370" stroke="#666" stroke-width="2"/>
  <line x1="400" y1="370" x2="400" y2="380" stroke="#666" stroke-width="2"/>
  <line x1="200" y1="380" x2="600" y2="380" stroke="#666" stroke-width="2"/>
  
  <line x1="145" y1="380" x2="145" y2="440" stroke="#666" stroke-width="2"/>
  <line x1="295" y1="380" x2="295" y2="440" stroke="#666" stroke-width="2"/>
  <line x1="445" y1="380" x2="445" y2="440" stroke="#666" stroke-width="2"/>
  <line x1="595" y1="380" x2="595" y2="440" stroke="#666" stroke-width="2"/>
  
  <line x1="310" y1="360" x2="310" y2="370" stroke="#666" stroke-width="2"/>
  <line x1="470" y1="360" x2="470" y2="370" stroke="#666" stroke-width="2"/>
  <line x1="630" y1="360" x2="630" y2="390" stroke="#666" stroke-width="2"/>
  <line x1="630" y1="390" x2="745" y2="390" stroke="#666" stroke-width="2"/>
  <line x1="745" y1="390" x2="745" y2="440" stroke="#666" stroke-width="2"/>
  <line x1="790" y1="360" x2="790" y2="390" stroke="#666" stroke-width="2"/>
  <line x1="790" y1="390" x2="745" y2="390" stroke="#666" stroke-width="2"/>
  
  <!-- 应用层到用户层 -->
  <line x1="400" y1="580" x2="400" y2="590" stroke="#666" stroke-width="2"/>
  <line x1="400" y1="590" x2="500" y2="590" stroke="#666" stroke-width="2"/>
  <line x1="275" y1="590" x2="275" y2="640" stroke="#666" stroke-width="2"/>
  <line x1="475" y1="590" x2="475" y2="640" stroke="#666" stroke-width="2"/>
  <line x1="675" y1="590" x2="675" y2="640" stroke="#666" stroke-width="2"/>
  
</svg>